<mxfile host="Electron" agent="Mozilla/5.0 (X11; Linux x86_64) AppleWebKit/537.36 (KHTML, like Gecko) draw.io/26.1.1 Chrome/132.0.6834.210 Electron/34.3.3 Safari/537.36" version="26.1.1">
  <diagram name="Page-1" id="aeegKRYO5-5cE-at2VME">
    <mxGraphModel dx="1122" dy="1625" grid="1" gridSize="10" guides="1" tooltips="1" connect="1" arrows="1" fold="1" page="1" pageScale="1" pageWidth="1400" pageHeight="850" math="0" shadow="0">
      <root>
        <mxCell id="0" />
        <mxCell id="1" parent="0" />
        <mxCell id="30E5ns5p_C7HyVAYwPgD-124" value="" style="rounded=0;whiteSpace=wrap;html=1;strokeWidth=2;fillColor=#dae8fc;perimeterSpacing=0;glass=0;shadow=0;strokeColor=#6c8ebf;" vertex="1" parent="1">
          <mxGeometry x="20" y="-830" width="540" height="240" as="geometry" />
        </mxCell>
        <mxCell id="30E5ns5p_C7HyVAYwPgD-122" value="" style="rounded=0;whiteSpace=wrap;html=1;strokeWidth=2;fillColor=#dae8fc;perimeterSpacing=0;glass=0;shadow=0;strokeColor=#6c8ebf;" vertex="1" parent="1">
          <mxGeometry x="20" y="-570" width="300" height="400" as="geometry" />
        </mxCell>
        <mxCell id="PdVLwvRMoZ06xOBQqHvc-40" value="" style="rounded=0;whiteSpace=wrap;html=1;strokeWidth=2;fillColor=#dae8fc;perimeterSpacing=0;glass=0;shadow=0;strokeColor=#6c8ebf;" parent="1" vertex="1">
          <mxGeometry x="340" y="-570" width="170" height="180" as="geometry" />
        </mxCell>
        <mxCell id="jPzO7c27cUPiiFDw-lQR-12" style="rounded=0;orthogonalLoop=1;jettySize=auto;html=1;exitX=1;exitY=0;exitDx=0;exitDy=0;entryX=0;entryY=0;entryDx=0;entryDy=0;dashed=1;endArrow=none;startFill=0;" parent="1" source="jPzO7c27cUPiiFDw-lQR-4" target="jPzO7c27cUPiiFDw-lQR-14" edge="1">
          <mxGeometry relative="1" as="geometry">
            <mxPoint x="430" y="-430" as="targetPoint" />
          </mxGeometry>
        </mxCell>
        <mxCell id="jPzO7c27cUPiiFDw-lQR-13" style="rounded=0;orthogonalLoop=1;jettySize=auto;html=1;exitX=1;exitY=1;exitDx=0;exitDy=0;entryX=0;entryY=1;entryDx=0;entryDy=0;endArrow=none;startFill=0;dashed=1;" parent="1" source="jPzO7c27cUPiiFDw-lQR-4" target="jPzO7c27cUPiiFDw-lQR-14" edge="1">
          <mxGeometry relative="1" as="geometry">
            <mxPoint x="430" y="-220" as="targetPoint" />
          </mxGeometry>
        </mxCell>
        <mxCell id="jPzO7c27cUPiiFDw-lQR-4" value="IHM" style="rounded=0;whiteSpace=wrap;html=1;fillColor=#f5f5f5;fontColor=#333333;strokeColor=#666666;" parent="1" vertex="1">
          <mxGeometry x="30" y="-750" width="120" height="60" as="geometry" />
        </mxCell>
        <mxCell id="jPzO7c27cUPiiFDw-lQR-23" value="USER MANAGEMENT CLICKED" style="rounded=1;whiteSpace=wrap;html=1;fillColor=#dae8fc;strokeColor=#6c8ebf;dashed=1;" parent="1" vertex="1">
          <mxGeometry x="190" y="-560" width="120" height="60" as="geometry" />
        </mxCell>
        <mxCell id="jPzO7c27cUPiiFDw-lQR-27" style="edgeStyle=orthogonalEdgeStyle;rounded=0;orthogonalLoop=1;jettySize=auto;html=1;entryX=0;entryY=0.5;entryDx=0;entryDy=0;" parent="1" source="jPzO7c27cUPiiFDw-lQR-26" target="jPzO7c27cUPiiFDw-lQR-23" edge="1">
          <mxGeometry relative="1" as="geometry" />
        </mxCell>
        <mxCell id="jPzO7c27cUPiiFDw-lQR-39" style="edgeStyle=orthogonalEdgeStyle;rounded=0;orthogonalLoop=1;jettySize=auto;html=1;exitX=1;exitY=0.5;exitDx=0;exitDy=0;entryX=0;entryY=0.5;entryDx=0;entryDy=0;" parent="1" source="jPzO7c27cUPiiFDw-lQR-26" target="jPzO7c27cUPiiFDw-lQR-28" edge="1">
          <mxGeometry relative="1" as="geometry" />
        </mxCell>
        <mxCell id="jPzO7c27cUPiiFDw-lQR-40" style="edgeStyle=orthogonalEdgeStyle;rounded=0;orthogonalLoop=1;jettySize=auto;html=1;exitX=1;exitY=0.5;exitDx=0;exitDy=0;entryX=0;entryY=0.5;entryDx=0;entryDy=0;" parent="1" source="jPzO7c27cUPiiFDw-lQR-26" target="jPzO7c27cUPiiFDw-lQR-38" edge="1">
          <mxGeometry relative="1" as="geometry" />
        </mxCell>
        <mxCell id="jPzO7c27cUPiiFDw-lQR-49" style="edgeStyle=orthogonalEdgeStyle;rounded=0;orthogonalLoop=1;jettySize=auto;html=1;exitX=1;exitY=0.5;exitDx=0;exitDy=0;entryX=0;entryY=0.5;entryDx=0;entryDy=0;" parent="1" source="jPzO7c27cUPiiFDw-lQR-26" target="jPzO7c27cUPiiFDw-lQR-45" edge="1">
          <mxGeometry relative="1" as="geometry" />
        </mxCell>
        <mxCell id="jPzO7c27cUPiiFDw-lQR-50" style="edgeStyle=orthogonalEdgeStyle;rounded=0;orthogonalLoop=1;jettySize=auto;html=1;exitX=1;exitY=0.5;exitDx=0;exitDy=0;entryX=0;entryY=0.5;entryDx=0;entryDy=0;" parent="1" source="jPzO7c27cUPiiFDw-lQR-26" target="jPzO7c27cUPiiFDw-lQR-46" edge="1">
          <mxGeometry relative="1" as="geometry" />
        </mxCell>
        <mxCell id="jPzO7c27cUPiiFDw-lQR-26" value="IHM" style="rounded=0;whiteSpace=wrap;html=1;" parent="1" vertex="1">
          <mxGeometry x="30" y="-400" width="120" height="60" as="geometry" />
        </mxCell>
        <mxCell id="jPzO7c27cUPiiFDw-lQR-28" value="PROJECT MANAGEMENT CLICKED" style="rounded=1;whiteSpace=wrap;html=1;fillColor=#e1d5e7;strokeColor=#9673a6;" parent="1" vertex="1">
          <mxGeometry x="190" y="-480" width="120" height="60" as="geometry" />
        </mxCell>
        <mxCell id="jPzO7c27cUPiiFDw-lQR-38" value="PROJECT CLICKED" style="rounded=1;whiteSpace=wrap;html=1;fillColor=#d5e8d4;strokeColor=#82b366;dashed=1;" parent="1" vertex="1">
          <mxGeometry x="190" y="-400" width="120" height="60" as="geometry" />
        </mxCell>
        <mxCell id="jPzO7c27cUPiiFDw-lQR-45" value="USER SETTINGS CLICKED" style="rounded=1;whiteSpace=wrap;html=1;fillColor=#f5f5f5;strokeColor=#666666;fontColor=#333333;dashed=1;" parent="1" vertex="1">
          <mxGeometry x="190" y="-320" width="120" height="60" as="geometry" />
        </mxCell>
        <mxCell id="jPzO7c27cUPiiFDw-lQR-46" value="SEARCH CLICKED" style="rounded=1;whiteSpace=wrap;html=1;fillColor=#f5f5f5;strokeColor=#666666;fontColor=#333333;dashed=1;" parent="1" vertex="1">
          <mxGeometry x="190" y="-240" width="120" height="60" as="geometry" />
        </mxCell>
        <mxCell id="PdVLwvRMoZ06xOBQqHvc-41" value="Event détecté" style="rounded=1;whiteSpace=wrap;html=1;" parent="1" vertex="1">
          <mxGeometry x="350.65" y="-540" width="150" height="30" as="geometry" />
        </mxCell>
        <mxCell id="PdVLwvRMoZ06xOBQqHvc-42" value="Affichage sur un bloc" style="rounded=0;whiteSpace=wrap;html=1;" parent="1" vertex="1">
          <mxGeometry x="351.29999999999995" y="-500" width="149.35" height="30" as="geometry" />
        </mxCell>
        <mxCell id="jPzO7c27cUPiiFDw-lQR-14" value="" style="rounded=0;whiteSpace=wrap;html=1;strokeWidth=2;fillColor=none;" parent="1" vertex="1">
          <mxGeometry x="190" y="-820" width="340" height="200" as="geometry" />
        </mxCell>
        <mxCell id="jPzO7c27cUPiiFDw-lQR-15" value="BLOC A" style="rounded=0;whiteSpace=wrap;html=1;fillColor=#f5f5f5;strokeColor=#666666;fontColor=#333333;" parent="1" vertex="1">
          <mxGeometry x="190" y="-820" width="340" height="25.806451612903224" as="geometry" />
        </mxCell>
        <mxCell id="jPzO7c27cUPiiFDw-lQR-16" value="BLOC B" style="rounded=0;whiteSpace=wrap;html=1;fillColor=#dae8fc;strokeColor=#6c8ebf;" parent="1" vertex="1">
          <mxGeometry x="190" y="-794.19" width="81.3" height="44.19" as="geometry" />
        </mxCell>
        <mxCell id="jPzO7c27cUPiiFDw-lQR-17" value="BLOC E" style="rounded=0;whiteSpace=wrap;html=1;fillColor=#f8cecc;strokeColor=#b85450;" parent="1" vertex="1">
          <mxGeometry x="271.3" y="-794.19" width="258.7" height="124.19" as="geometry" />
        </mxCell>
        <mxCell id="jPzO7c27cUPiiFDw-lQR-31" value="BLOC C" style="rounded=0;whiteSpace=wrap;html=1;fillColor=#e1d5e7;strokeColor=#9673a6;" parent="1" vertex="1">
          <mxGeometry x="190" y="-750" width="81.3" height="40" as="geometry" />
        </mxCell>
        <mxCell id="jPzO7c27cUPiiFDw-lQR-32" value="BLOC F" style="rounded=0;whiteSpace=wrap;html=1;fillColor=#ffe6cc;strokeColor=#d79b00;" parent="1" vertex="1">
          <mxGeometry x="271.3" y="-670" width="258.7" height="50" as="geometry" />
        </mxCell>
        <mxCell id="jPzO7c27cUPiiFDw-lQR-37" value="BLOC D" style="rounded=0;whiteSpace=wrap;html=1;fillColor=#d5e8d4;strokeColor=#82b366;" parent="1" vertex="1">
          <mxGeometry x="190" y="-710" width="81.3" height="90" as="geometry" />
        </mxCell>
        <mxCell id="30E5ns5p_C7HyVAYwPgD-68" value="Légende" style="text;html=1;align=center;verticalAlign=middle;whiteSpace=wrap;rounded=0;spacing=2;fontSize=16;" vertex="1" parent="1">
          <mxGeometry x="395" y="-570" width="60" height="30" as="geometry" />
        </mxCell>
        <mxCell id="30E5ns5p_C7HyVAYwPgD-69" value="La couleur des rectangles détermine les blocs concernés." style="text;html=1;align=center;verticalAlign=middle;whiteSpace=wrap;rounded=0;" vertex="1" parent="1">
          <mxGeometry x="340.97" y="-430" width="170" height="40" as="geometry" />
        </mxCell>
        <mxCell id="30E5ns5p_C7HyVAYwPgD-70" value="Non implémenté" style="rounded=0;whiteSpace=wrap;html=1;dashed=1;" vertex="1" parent="1">
          <mxGeometry x="350.97" y="-460" width="150" height="30" as="geometry" />
        </mxCell>
        <mxCell id="30E5ns5p_C7HyVAYwPgD-77" value="" style="rounded=0;whiteSpace=wrap;html=1;strokeWidth=2;fillColor=#E5E5E5;perimeterSpacing=0;glass=0;shadow=0;" vertex="1" parent="1">
          <mxGeometry x="580" y="-830" width="300" height="220" as="geometry" />
        </mxCell>
        <mxCell id="30E5ns5p_C7HyVAYwPgD-78" style="edgeStyle=orthogonalEdgeStyle;rounded=0;orthogonalLoop=1;jettySize=auto;html=1;" edge="1" parent="1" source="30E5ns5p_C7HyVAYwPgD-81" target="30E5ns5p_C7HyVAYwPgD-82">
          <mxGeometry relative="1" as="geometry" />
        </mxCell>
        <mxCell id="30E5ns5p_C7HyVAYwPgD-79" style="edgeStyle=orthogonalEdgeStyle;rounded=0;orthogonalLoop=1;jettySize=auto;html=1;entryX=0;entryY=0.5;entryDx=0;entryDy=0;" edge="1" parent="1" source="30E5ns5p_C7HyVAYwPgD-81" target="30E5ns5p_C7HyVAYwPgD-83">
          <mxGeometry relative="1" as="geometry" />
        </mxCell>
        <mxCell id="30E5ns5p_C7HyVAYwPgD-80" style="edgeStyle=orthogonalEdgeStyle;rounded=0;orthogonalLoop=1;jettySize=auto;html=1;entryX=0;entryY=0.5;entryDx=0;entryDy=0;" edge="1" parent="1" source="30E5ns5p_C7HyVAYwPgD-81" target="30E5ns5p_C7HyVAYwPgD-84">
          <mxGeometry relative="1" as="geometry" />
        </mxCell>
        <mxCell id="30E5ns5p_C7HyVAYwPgD-81" value="PROJECT MANAGEMENT CLICKED" style="rounded=1;whiteSpace=wrap;html=1;fillColor=#e1d5e7;strokeColor=#9673a6;" vertex="1" parent="1">
          <mxGeometry x="590" y="-820" width="120" height="60" as="geometry" />
        </mxCell>
        <mxCell id="30E5ns5p_C7HyVAYwPgD-82" value="LISTE PROJETS" style="rounded=0;whiteSpace=wrap;html=1;fillColor=#f8cecc;strokeColor=#b85450;" vertex="1" parent="1">
          <mxGeometry x="750" y="-820" width="120" height="60" as="geometry" />
        </mxCell>
        <mxCell id="30E5ns5p_C7HyVAYwPgD-83" value="ADD, EDIT, DELETE PROJECTS" style="rounded=0;whiteSpace=wrap;html=1;fillColor=#ffe6cc;strokeColor=#d79b00;" vertex="1" parent="1">
          <mxGeometry x="750" y="-750" width="120" height="60" as="geometry" />
        </mxCell>
        <mxCell id="30E5ns5p_C7HyVAYwPgD-84" value="LISTE PROJETS" style="rounded=0;whiteSpace=wrap;html=1;fillColor=#d5e8d4;strokeColor=#82b366;" vertex="1" parent="1">
          <mxGeometry x="750" y="-680" width="120" height="60" as="geometry" />
        </mxCell>
        <mxCell id="30E5ns5p_C7HyVAYwPgD-85" value="" style="rounded=0;whiteSpace=wrap;html=1;strokeWidth=2;fillColor=#E5E5E5;perimeterSpacing=0;glass=0;shadow=0;" vertex="1" parent="1">
          <mxGeometry x="890" y="-830" width="300" height="220" as="geometry" />
        </mxCell>
        <mxCell id="30E5ns5p_C7HyVAYwPgD-86" style="edgeStyle=orthogonalEdgeStyle;rounded=0;orthogonalLoop=1;jettySize=auto;html=1;" edge="1" parent="1" source="30E5ns5p_C7HyVAYwPgD-89" target="30E5ns5p_C7HyVAYwPgD-90">
          <mxGeometry relative="1" as="geometry" />
        </mxCell>
        <mxCell id="30E5ns5p_C7HyVAYwPgD-87" style="edgeStyle=orthogonalEdgeStyle;rounded=0;orthogonalLoop=1;jettySize=auto;html=1;entryX=0;entryY=0.5;entryDx=0;entryDy=0;" edge="1" parent="1" source="30E5ns5p_C7HyVAYwPgD-89" target="30E5ns5p_C7HyVAYwPgD-91">
          <mxGeometry relative="1" as="geometry" />
        </mxCell>
        <mxCell id="30E5ns5p_C7HyVAYwPgD-88" style="edgeStyle=orthogonalEdgeStyle;rounded=0;orthogonalLoop=1;jettySize=auto;html=1;entryX=0;entryY=0.5;entryDx=0;entryDy=0;" edge="1" parent="1" source="30E5ns5p_C7HyVAYwPgD-89" target="30E5ns5p_C7HyVAYwPgD-92">
          <mxGeometry relative="1" as="geometry" />
        </mxCell>
        <mxCell id="30E5ns5p_C7HyVAYwPgD-89" value="PROJECT CLICKED" style="rounded=1;whiteSpace=wrap;html=1;fillColor=#d5e8d4;strokeColor=#82b366;" vertex="1" parent="1">
          <mxGeometry x="900" y="-820" width="120" height="60" as="geometry" />
        </mxCell>
        <mxCell id="30E5ns5p_C7HyVAYwPgD-90" value="LISTE LOTS" style="rounded=0;whiteSpace=wrap;html=1;fillColor=#f8cecc;strokeColor=#b85450;" vertex="1" parent="1">
          <mxGeometry x="1060" y="-820" width="120" height="60" as="geometry" />
        </mxCell>
        <mxCell id="30E5ns5p_C7HyVAYwPgD-91" value="ADD, EDIT, DELETE LOTS" style="rounded=0;whiteSpace=wrap;html=1;fillColor=#ffe6cc;strokeColor=#d79b00;" vertex="1" parent="1">
          <mxGeometry x="1060" y="-750" width="120" height="60" as="geometry" />
        </mxCell>
        <mxCell id="30E5ns5p_C7HyVAYwPgD-92" value="LISTE PROJETS, LOTS" style="rounded=0;whiteSpace=wrap;html=1;fillColor=#d5e8d4;strokeColor=#82b366;" vertex="1" parent="1">
          <mxGeometry x="1060" y="-680" width="120" height="60" as="geometry" />
        </mxCell>
        <mxCell id="30E5ns5p_C7HyVAYwPgD-93" style="edgeStyle=orthogonalEdgeStyle;rounded=0;orthogonalLoop=1;jettySize=auto;html=1;entryX=0;entryY=0.5;entryDx=0;entryDy=0;" edge="1" parent="1" source="30E5ns5p_C7HyVAYwPgD-96" target="30E5ns5p_C7HyVAYwPgD-90">
          <mxGeometry relative="1" as="geometry" />
        </mxCell>
        <mxCell id="30E5ns5p_C7HyVAYwPgD-94" style="edgeStyle=orthogonalEdgeStyle;rounded=0;orthogonalLoop=1;jettySize=auto;html=1;entryX=0;entryY=0.5;entryDx=0;entryDy=0;" edge="1" parent="1" source="30E5ns5p_C7HyVAYwPgD-96" target="30E5ns5p_C7HyVAYwPgD-91">
          <mxGeometry relative="1" as="geometry" />
        </mxCell>
        <mxCell id="30E5ns5p_C7HyVAYwPgD-95" style="edgeStyle=orthogonalEdgeStyle;rounded=0;orthogonalLoop=1;jettySize=auto;html=1;entryX=0;entryY=0.5;entryDx=0;entryDy=0;" edge="1" parent="1" source="30E5ns5p_C7HyVAYwPgD-96" target="30E5ns5p_C7HyVAYwPgD-92">
          <mxGeometry relative="1" as="geometry" />
        </mxCell>
        <mxCell id="30E5ns5p_C7HyVAYwPgD-96" value="PROJECT CLICKED" style="rounded=1;whiteSpace=wrap;html=1;fillColor=#f8cecc;strokeColor=#b85450;" vertex="1" parent="1">
          <mxGeometry x="900" y="-750" width="120" height="60" as="geometry" />
        </mxCell>
        <mxCell id="30E5ns5p_C7HyVAYwPgD-97" value="" style="rounded=0;whiteSpace=wrap;html=1;strokeWidth=2;fillColor=#E5E5E5;perimeterSpacing=0;glass=0;shadow=0;" vertex="1" parent="1">
          <mxGeometry x="580" y="-600" width="300" height="220" as="geometry" />
        </mxCell>
        <mxCell id="30E5ns5p_C7HyVAYwPgD-98" style="edgeStyle=orthogonalEdgeStyle;rounded=0;orthogonalLoop=1;jettySize=auto;html=1;" edge="1" parent="1" source="30E5ns5p_C7HyVAYwPgD-101" target="30E5ns5p_C7HyVAYwPgD-102">
          <mxGeometry relative="1" as="geometry" />
        </mxCell>
        <mxCell id="30E5ns5p_C7HyVAYwPgD-99" style="edgeStyle=orthogonalEdgeStyle;rounded=0;orthogonalLoop=1;jettySize=auto;html=1;entryX=0;entryY=0.5;entryDx=0;entryDy=0;" edge="1" parent="1" source="30E5ns5p_C7HyVAYwPgD-101" target="30E5ns5p_C7HyVAYwPgD-103">
          <mxGeometry relative="1" as="geometry" />
        </mxCell>
        <mxCell id="30E5ns5p_C7HyVAYwPgD-100" style="edgeStyle=orthogonalEdgeStyle;rounded=0;orthogonalLoop=1;jettySize=auto;html=1;entryX=0;entryY=0.5;entryDx=0;entryDy=0;" edge="1" parent="1" source="30E5ns5p_C7HyVAYwPgD-101" target="30E5ns5p_C7HyVAYwPgD-104">
          <mxGeometry relative="1" as="geometry" />
        </mxCell>
        <mxCell id="30E5ns5p_C7HyVAYwPgD-101" value="LOT CLICKED" style="rounded=1;whiteSpace=wrap;html=1;fillColor=#d5e8d4;strokeColor=#82b366;" vertex="1" parent="1">
          <mxGeometry x="590" y="-590" width="120" height="60" as="geometry" />
        </mxCell>
        <mxCell id="30E5ns5p_C7HyVAYwPgD-102" value="LISTE ACTIVITES" style="rounded=0;whiteSpace=wrap;html=1;fillColor=#f8cecc;strokeColor=#b85450;" vertex="1" parent="1">
          <mxGeometry x="750" y="-590" width="120" height="60" as="geometry" />
        </mxCell>
        <mxCell id="30E5ns5p_C7HyVAYwPgD-103" value="ADD, EDIT, DELETE ACTIVITES" style="rounded=0;whiteSpace=wrap;html=1;fillColor=#ffe6cc;strokeColor=#d79b00;" vertex="1" parent="1">
          <mxGeometry x="750" y="-520" width="120" height="60" as="geometry" />
        </mxCell>
        <mxCell id="30E5ns5p_C7HyVAYwPgD-104" value="LISTE PROJETS, LOTS, ACTIVITES" style="rounded=0;whiteSpace=wrap;html=1;fillColor=#d5e8d4;strokeColor=#82b366;" vertex="1" parent="1">
          <mxGeometry x="750" y="-450" width="120" height="60" as="geometry" />
        </mxCell>
        <mxCell id="30E5ns5p_C7HyVAYwPgD-105" style="edgeStyle=orthogonalEdgeStyle;rounded=0;orthogonalLoop=1;jettySize=auto;html=1;entryX=0;entryY=0.5;entryDx=0;entryDy=0;" edge="1" parent="1" source="30E5ns5p_C7HyVAYwPgD-108" target="30E5ns5p_C7HyVAYwPgD-102">
          <mxGeometry relative="1" as="geometry" />
        </mxCell>
        <mxCell id="30E5ns5p_C7HyVAYwPgD-106" style="edgeStyle=orthogonalEdgeStyle;rounded=0;orthogonalLoop=1;jettySize=auto;html=1;entryX=0;entryY=0.5;entryDx=0;entryDy=0;" edge="1" parent="1" source="30E5ns5p_C7HyVAYwPgD-108" target="30E5ns5p_C7HyVAYwPgD-103">
          <mxGeometry relative="1" as="geometry" />
        </mxCell>
        <mxCell id="30E5ns5p_C7HyVAYwPgD-107" style="edgeStyle=orthogonalEdgeStyle;rounded=0;orthogonalLoop=1;jettySize=auto;html=1;entryX=0;entryY=0.5;entryDx=0;entryDy=0;" edge="1" parent="1" source="30E5ns5p_C7HyVAYwPgD-108" target="30E5ns5p_C7HyVAYwPgD-104">
          <mxGeometry relative="1" as="geometry" />
        </mxCell>
        <mxCell id="30E5ns5p_C7HyVAYwPgD-108" value="LOT CLICKED" style="rounded=1;whiteSpace=wrap;html=1;fillColor=#f8cecc;strokeColor=#b85450;" vertex="1" parent="1">
          <mxGeometry x="590" y="-520" width="120" height="60" as="geometry" />
        </mxCell>
        <mxCell id="30E5ns5p_C7HyVAYwPgD-109" value="" style="rounded=0;whiteSpace=wrap;html=1;strokeWidth=2;fillColor=#E5E5E5;perimeterSpacing=0;glass=0;shadow=0;" vertex="1" parent="1">
          <mxGeometry x="890" y="-600" width="300" height="220" as="geometry" />
        </mxCell>
        <mxCell id="30E5ns5p_C7HyVAYwPgD-110" style="edgeStyle=orthogonalEdgeStyle;rounded=0;orthogonalLoop=1;jettySize=auto;html=1;" edge="1" parent="1" source="30E5ns5p_C7HyVAYwPgD-113" target="30E5ns5p_C7HyVAYwPgD-114">
          <mxGeometry relative="1" as="geometry" />
        </mxCell>
        <mxCell id="30E5ns5p_C7HyVAYwPgD-111" style="edgeStyle=orthogonalEdgeStyle;rounded=0;orthogonalLoop=1;jettySize=auto;html=1;entryX=0;entryY=0.5;entryDx=0;entryDy=0;" edge="1" parent="1" source="30E5ns5p_C7HyVAYwPgD-113" target="30E5ns5p_C7HyVAYwPgD-115">
          <mxGeometry relative="1" as="geometry" />
        </mxCell>
        <mxCell id="30E5ns5p_C7HyVAYwPgD-112" style="edgeStyle=orthogonalEdgeStyle;rounded=0;orthogonalLoop=1;jettySize=auto;html=1;entryX=0;entryY=0.5;entryDx=0;entryDy=0;" edge="1" parent="1" source="30E5ns5p_C7HyVAYwPgD-113" target="30E5ns5p_C7HyVAYwPgD-116">
          <mxGeometry relative="1" as="geometry" />
        </mxCell>
        <mxCell id="30E5ns5p_C7HyVAYwPgD-113" value="ACTIVITES CLICKED" style="rounded=1;whiteSpace=wrap;html=1;fillColor=#d5e8d4;strokeColor=#82b366;" vertex="1" parent="1">
          <mxGeometry x="900" y="-590" width="120" height="60" as="geometry" />
        </mxCell>
        <mxCell id="30E5ns5p_C7HyVAYwPgD-114" value="CALENDRIER HEURES" style="rounded=0;whiteSpace=wrap;html=1;fillColor=#f8cecc;strokeColor=#b85450;dashed=1;" vertex="1" parent="1">
          <mxGeometry x="1060" y="-590" width="120" height="60" as="geometry" />
        </mxCell>
        <mxCell id="30E5ns5p_C7HyVAYwPgD-115" value="ADD, EDIT, DELETE TEMPS" style="rounded=0;whiteSpace=wrap;html=1;fillColor=#ffe6cc;strokeColor=#d79b00;dashed=1;" vertex="1" parent="1">
          <mxGeometry x="1060" y="-520" width="120" height="60" as="geometry" />
        </mxCell>
        <mxCell id="30E5ns5p_C7HyVAYwPgD-116" value="LISTE PROJETS, LOTS, ACTIVITES" style="rounded=0;whiteSpace=wrap;html=1;fillColor=#d5e8d4;strokeColor=#82b366;" vertex="1" parent="1">
          <mxGeometry x="1060" y="-450" width="120" height="60" as="geometry" />
        </mxCell>
        <mxCell id="30E5ns5p_C7HyVAYwPgD-117" style="edgeStyle=orthogonalEdgeStyle;rounded=0;orthogonalLoop=1;jettySize=auto;html=1;entryX=0;entryY=0.5;entryDx=0;entryDy=0;" edge="1" parent="1" source="30E5ns5p_C7HyVAYwPgD-120" target="30E5ns5p_C7HyVAYwPgD-114">
          <mxGeometry relative="1" as="geometry" />
        </mxCell>
        <mxCell id="30E5ns5p_C7HyVAYwPgD-118" style="edgeStyle=orthogonalEdgeStyle;rounded=0;orthogonalLoop=1;jettySize=auto;html=1;entryX=0;entryY=0.5;entryDx=0;entryDy=0;" edge="1" parent="1" source="30E5ns5p_C7HyVAYwPgD-120" target="30E5ns5p_C7HyVAYwPgD-115">
          <mxGeometry relative="1" as="geometry" />
        </mxCell>
        <mxCell id="30E5ns5p_C7HyVAYwPgD-119" style="edgeStyle=orthogonalEdgeStyle;rounded=0;orthogonalLoop=1;jettySize=auto;html=1;entryX=0;entryY=0.5;entryDx=0;entryDy=0;" edge="1" parent="1" source="30E5ns5p_C7HyVAYwPgD-120" target="30E5ns5p_C7HyVAYwPgD-116">
          <mxGeometry relative="1" as="geometry" />
        </mxCell>
        <mxCell id="30E5ns5p_C7HyVAYwPgD-120" value="ACTIVITES&amp;nbsp;CLICKED" style="rounded=1;whiteSpace=wrap;html=1;fillColor=#f8cecc;strokeColor=#b85450;" vertex="1" parent="1">
          <mxGeometry x="900" y="-520" width="120" height="60" as="geometry" />
        </mxCell>
        <mxCell id="30E5ns5p_C7HyVAYwPgD-121" value="Layout" style="text;html=1;align=center;verticalAlign=middle;whiteSpace=wrap;rounded=0;spacing=2;fontSize=16;" vertex="1" parent="1">
          <mxGeometry x="60" y="-800" width="60" height="30" as="geometry" />
        </mxCell>
        <mxCell id="30E5ns5p_C7HyVAYwPgD-123" value="Events possibles" style="text;html=1;align=center;verticalAlign=middle;whiteSpace=wrap;rounded=0;spacing=2;fontSize=16;" vertex="1" parent="1">
          <mxGeometry x="60" y="-490" width="60" height="30" as="geometry" />
        </mxCell>
        <mxCell id="30E5ns5p_C7HyVAYwPgD-125" value="" style="rounded=0;whiteSpace=wrap;html=1;strokeWidth=2;fillColor=#E5E5E5;perimeterSpacing=0;glass=0;shadow=0;" vertex="1" parent="1">
          <mxGeometry x="340" y="-370" width="300" height="150" as="geometry" />
        </mxCell>
        <mxCell id="30E5ns5p_C7HyVAYwPgD-126" style="edgeStyle=orthogonalEdgeStyle;rounded=0;orthogonalLoop=1;jettySize=auto;html=1;" edge="1" parent="1" source="30E5ns5p_C7HyVAYwPgD-129" target="30E5ns5p_C7HyVAYwPgD-130">
          <mxGeometry relative="1" as="geometry" />
        </mxCell>
        <mxCell id="30E5ns5p_C7HyVAYwPgD-127" style="edgeStyle=orthogonalEdgeStyle;rounded=0;orthogonalLoop=1;jettySize=auto;html=1;entryX=0;entryY=0.5;entryDx=0;entryDy=0;" edge="1" parent="1" source="30E5ns5p_C7HyVAYwPgD-129" target="30E5ns5p_C7HyVAYwPgD-131">
          <mxGeometry relative="1" as="geometry" />
        </mxCell>
        <mxCell id="30E5ns5p_C7HyVAYwPgD-129" value="ADD PROJECT" style="rounded=1;whiteSpace=wrap;html=1;fillColor=#ffe6cc;strokeColor=#d79b00;" vertex="1" parent="1">
          <mxGeometry x="350" y="-360" width="120" height="60" as="geometry" />
        </mxCell>
        <mxCell id="30E5ns5p_C7HyVAYwPgD-130" value="PARAMETRES DU PROJET" style="rounded=0;whiteSpace=wrap;html=1;fillColor=#f8cecc;strokeColor=#b85450;" vertex="1" parent="1">
          <mxGeometry x="510" y="-360" width="120" height="60" as="geometry" />
        </mxCell>
        <mxCell id="30E5ns5p_C7HyVAYwPgD-131" value="BOUTON POUR CONFIRMER L&#39;AJOUT" style="rounded=0;whiteSpace=wrap;html=1;fillColor=#ffe6cc;strokeColor=#d79b00;" vertex="1" parent="1">
          <mxGeometry x="510" y="-290" width="120" height="60" as="geometry" />
        </mxCell>
        <mxCell id="30E5ns5p_C7HyVAYwPgD-137" value="" style="rounded=0;whiteSpace=wrap;html=1;strokeWidth=2;fillColor=#E5E5E5;perimeterSpacing=0;glass=0;shadow=0;" vertex="1" parent="1">
          <mxGeometry x="340.97" y="-210" width="300" height="150" as="geometry" />
        </mxCell>
        <mxCell id="30E5ns5p_C7HyVAYwPgD-138" style="edgeStyle=orthogonalEdgeStyle;rounded=0;orthogonalLoop=1;jettySize=auto;html=1;" edge="1" parent="1" source="30E5ns5p_C7HyVAYwPgD-140" target="30E5ns5p_C7HyVAYwPgD-141">
          <mxGeometry relative="1" as="geometry" />
        </mxCell>
        <mxCell id="30E5ns5p_C7HyVAYwPgD-139" style="edgeStyle=orthogonalEdgeStyle;rounded=0;orthogonalLoop=1;jettySize=auto;html=1;entryX=0;entryY=0.5;entryDx=0;entryDy=0;" edge="1" parent="1" source="30E5ns5p_C7HyVAYwPgD-140" target="30E5ns5p_C7HyVAYwPgD-142">
          <mxGeometry relative="1" as="geometry" />
        </mxCell>
        <mxCell id="30E5ns5p_C7HyVAYwPgD-140" value="EDIT PROJECT" style="rounded=1;whiteSpace=wrap;html=1;fillColor=#ffe6cc;strokeColor=#d79b00;" vertex="1" parent="1">
          <mxGeometry x="350.97" y="-200" width="120" height="60" as="geometry" />
        </mxCell>
        <mxCell id="30E5ns5p_C7HyVAYwPgD-141" value="PARAMETRES DU PROJET" style="rounded=0;whiteSpace=wrap;html=1;fillColor=#f8cecc;strokeColor=#b85450;" vertex="1" parent="1">
          <mxGeometry x="510.97" y="-200" width="120" height="60" as="geometry" />
        </mxCell>
        <mxCell id="30E5ns5p_C7HyVAYwPgD-142" value="BOUTON POUR CONFIRMER LES MODIFICATIONS" style="rounded=0;whiteSpace=wrap;html=1;fillColor=#ffe6cc;strokeColor=#d79b00;" vertex="1" parent="1">
          <mxGeometry x="510.97" y="-130" width="120" height="60" as="geometry" />
        </mxCell>
        <mxCell id="30E5ns5p_C7HyVAYwPgD-143" value="" style="rounded=0;whiteSpace=wrap;html=1;strokeWidth=2;fillColor=#E5E5E5;perimeterSpacing=0;glass=0;shadow=0;" vertex="1" parent="1">
          <mxGeometry x="340.97" y="-50" width="300" height="70" as="geometry" />
        </mxCell>
        <mxCell id="30E5ns5p_C7HyVAYwPgD-144" style="edgeStyle=orthogonalEdgeStyle;rounded=0;orthogonalLoop=1;jettySize=auto;html=1;" edge="1" parent="1" source="30E5ns5p_C7HyVAYwPgD-146" target="30E5ns5p_C7HyVAYwPgD-147">
          <mxGeometry relative="1" as="geometry" />
        </mxCell>
        <mxCell id="30E5ns5p_C7HyVAYwPgD-146" value="DELETE PROJECT" style="rounded=1;whiteSpace=wrap;html=1;fillColor=#ffe6cc;strokeColor=#d79b00;" vertex="1" parent="1">
          <mxGeometry x="350.97" y="-40" width="120" height="50" as="geometry" />
        </mxCell>
        <mxCell id="30E5ns5p_C7HyVAYwPgD-147" value="DEMANDE CONFIRMATION SUPPRESSION" style="rounded=0;whiteSpace=wrap;html=1;fillColor=#ffe6cc;strokeColor=#d79b00;" vertex="1" parent="1">
          <mxGeometry x="510.97" y="-40" width="120" height="50" as="geometry" />
        </mxCell>
        <mxCell id="30E5ns5p_C7HyVAYwPgD-153" value="BACKEND" style="rounded=0;whiteSpace=wrap;html=1;fillColor=#fff2cc;strokeColor=#d6b656;" vertex="1" parent="1">
          <mxGeometry x="40" y="-660" width="100" height="50" as="geometry" />
        </mxCell>
        <mxCell id="30E5ns5p_C7HyVAYwPgD-158" value="" style="rounded=0;whiteSpace=wrap;html=1;strokeWidth=2;fillColor=#E5E5E5;perimeterSpacing=0;glass=0;shadow=0;" vertex="1" parent="1">
          <mxGeometry x="650" y="-370" width="320" height="150" as="geometry" />
        </mxCell>
        <mxCell id="30E5ns5p_C7HyVAYwPgD-159" style="edgeStyle=orthogonalEdgeStyle;rounded=0;orthogonalLoop=1;jettySize=auto;html=1;" edge="1" parent="1" source="30E5ns5p_C7HyVAYwPgD-161" target="30E5ns5p_C7HyVAYwPgD-162">
          <mxGeometry relative="1" as="geometry" />
        </mxCell>
        <mxCell id="30E5ns5p_C7HyVAYwPgD-160" style="edgeStyle=orthogonalEdgeStyle;rounded=0;orthogonalLoop=1;jettySize=auto;html=1;exitX=1;exitY=0.5;exitDx=0;exitDy=0;entryX=0;entryY=0.5;entryDx=0;entryDy=0;" edge="1" parent="1" source="30E5ns5p_C7HyVAYwPgD-161" target="30E5ns5p_C7HyVAYwPgD-163">
          <mxGeometry relative="1" as="geometry" />
        </mxCell>
        <mxCell id="30E5ns5p_C7HyVAYwPgD-161" value="CONFIRMATION AJOUT" style="rounded=1;whiteSpace=wrap;html=1;fillColor=#ffe6cc;strokeColor=#d79b00;" vertex="1" parent="1">
          <mxGeometry x="670" y="-360" width="120" height="60" as="geometry" />
        </mxCell>
        <mxCell id="30E5ns5p_C7HyVAYwPgD-162" value="ADD, EDIT, DELETE PROJECTS" style="rounded=0;whiteSpace=wrap;html=1;fillColor=#ffe6cc;strokeColor=#d79b00;" vertex="1" parent="1">
          <mxGeometry x="840" y="-360" width="120" height="60" as="geometry" />
        </mxCell>
        <mxCell id="30E5ns5p_C7HyVAYwPgD-163" value="AJOUT PROJET" style="rounded=0;whiteSpace=wrap;html=1;fillColor=#fff2cc;strokeColor=#d6b656;" vertex="1" parent="1">
          <mxGeometry x="840" y="-290" width="120" height="60" as="geometry" />
        </mxCell>
        <mxCell id="30E5ns5p_C7HyVAYwPgD-164" style="edgeStyle=orthogonalEdgeStyle;rounded=0;orthogonalLoop=1;jettySize=auto;html=1;exitX=0.5;exitY=1;exitDx=0;exitDy=0;entryX=0;entryY=0.5;entryDx=0;entryDy=0;" edge="1" parent="1" source="30E5ns5p_C7HyVAYwPgD-161" target="30E5ns5p_C7HyVAYwPgD-161">
          <mxGeometry relative="1" as="geometry">
            <Array as="points">
              <mxPoint x="730" y="-280" />
              <mxPoint x="660" y="-280" />
              <mxPoint x="660" y="-330" />
            </Array>
          </mxGeometry>
        </mxCell>
        <mxCell id="30E5ns5p_C7HyVAYwPgD-166" value="Projet invalide" style="text;html=1;align=center;verticalAlign=middle;whiteSpace=wrap;rounded=0;" vertex="1" parent="1">
          <mxGeometry x="660" y="-280" width="60" height="30" as="geometry" />
        </mxCell>
        <mxCell id="30E5ns5p_C7HyVAYwPgD-167" value="Projet valide" style="text;html=1;align=center;verticalAlign=middle;whiteSpace=wrap;rounded=0;" vertex="1" parent="1">
          <mxGeometry x="780" y="-360" width="60" height="30" as="geometry" />
        </mxCell>
        <mxCell id="30E5ns5p_C7HyVAYwPgD-168" value="" style="rounded=0;whiteSpace=wrap;html=1;strokeWidth=2;fillColor=#E5E5E5;perimeterSpacing=0;glass=0;shadow=0;" vertex="1" parent="1">
          <mxGeometry x="650" y="-210" width="320" height="150" as="geometry" />
        </mxCell>
        <mxCell id="30E5ns5p_C7HyVAYwPgD-169" style="edgeStyle=orthogonalEdgeStyle;rounded=0;orthogonalLoop=1;jettySize=auto;html=1;" edge="1" parent="1" source="30E5ns5p_C7HyVAYwPgD-171" target="30E5ns5p_C7HyVAYwPgD-172">
          <mxGeometry relative="1" as="geometry" />
        </mxCell>
        <mxCell id="30E5ns5p_C7HyVAYwPgD-170" style="edgeStyle=orthogonalEdgeStyle;rounded=0;orthogonalLoop=1;jettySize=auto;html=1;exitX=1;exitY=0.5;exitDx=0;exitDy=0;entryX=0;entryY=0.5;entryDx=0;entryDy=0;" edge="1" parent="1" source="30E5ns5p_C7HyVAYwPgD-171" target="30E5ns5p_C7HyVAYwPgD-173">
          <mxGeometry relative="1" as="geometry" />
        </mxCell>
        <mxCell id="30E5ns5p_C7HyVAYwPgD-171" value="CONFIRMATION MODIFICATION" style="rounded=1;whiteSpace=wrap;html=1;fillColor=#ffe6cc;strokeColor=#d79b00;" vertex="1" parent="1">
          <mxGeometry x="670" y="-200" width="120" height="60" as="geometry" />
        </mxCell>
        <mxCell id="30E5ns5p_C7HyVAYwPgD-172" value="ADD, EDIT, DELETE PROJECTS" style="rounded=0;whiteSpace=wrap;html=1;fillColor=#ffe6cc;strokeColor=#d79b00;" vertex="1" parent="1">
          <mxGeometry x="840" y="-200" width="120" height="60" as="geometry" />
        </mxCell>
        <mxCell id="30E5ns5p_C7HyVAYwPgD-173" value="MODIFICATION PROJET" style="rounded=0;whiteSpace=wrap;html=1;fillColor=#fff2cc;strokeColor=#d6b656;" vertex="1" parent="1">
          <mxGeometry x="840" y="-130" width="120" height="60" as="geometry" />
        </mxCell>
        <mxCell id="30E5ns5p_C7HyVAYwPgD-174" style="edgeStyle=orthogonalEdgeStyle;rounded=0;orthogonalLoop=1;jettySize=auto;html=1;exitX=0.5;exitY=1;exitDx=0;exitDy=0;entryX=0;entryY=0.5;entryDx=0;entryDy=0;" edge="1" parent="1" source="30E5ns5p_C7HyVAYwPgD-171" target="30E5ns5p_C7HyVAYwPgD-171">
          <mxGeometry relative="1" as="geometry">
            <Array as="points">
              <mxPoint x="730" y="-120" />
              <mxPoint x="660" y="-120" />
              <mxPoint x="660" y="-170" />
            </Array>
          </mxGeometry>
        </mxCell>
        <mxCell id="30E5ns5p_C7HyVAYwPgD-175" value="Modif invalide" style="text;html=1;align=center;verticalAlign=middle;whiteSpace=wrap;rounded=0;" vertex="1" parent="1">
          <mxGeometry x="660" y="-120" width="60" height="30" as="geometry" />
        </mxCell>
        <mxCell id="30E5ns5p_C7HyVAYwPgD-176" value="Modif valide" style="text;html=1;align=center;verticalAlign=middle;whiteSpace=wrap;rounded=0;" vertex="1" parent="1">
          <mxGeometry x="780" y="-200" width="60" height="30" as="geometry" />
        </mxCell>
        <mxCell id="30E5ns5p_C7HyVAYwPgD-178" value="" style="rounded=0;whiteSpace=wrap;html=1;strokeWidth=2;fillColor=#E5E5E5;perimeterSpacing=0;glass=0;shadow=0;" vertex="1" parent="1">
          <mxGeometry x="650" y="-50" width="320" height="150" as="geometry" />
        </mxCell>
        <mxCell id="30E5ns5p_C7HyVAYwPgD-179" style="edgeStyle=orthogonalEdgeStyle;rounded=0;orthogonalLoop=1;jettySize=auto;html=1;" edge="1" parent="1" source="30E5ns5p_C7HyVAYwPgD-181" target="30E5ns5p_C7HyVAYwPgD-182">
          <mxGeometry relative="1" as="geometry" />
        </mxCell>
        <mxCell id="30E5ns5p_C7HyVAYwPgD-180" style="edgeStyle=orthogonalEdgeStyle;rounded=0;orthogonalLoop=1;jettySize=auto;html=1;exitX=1;exitY=0.5;exitDx=0;exitDy=0;entryX=0;entryY=0.5;entryDx=0;entryDy=0;" edge="1" parent="1" source="30E5ns5p_C7HyVAYwPgD-181" target="30E5ns5p_C7HyVAYwPgD-183">
          <mxGeometry relative="1" as="geometry" />
        </mxCell>
        <mxCell id="30E5ns5p_C7HyVAYwPgD-181" value="CONFIRMATION SUPPRESSION" style="rounded=1;whiteSpace=wrap;html=1;fillColor=#ffe6cc;strokeColor=#d79b00;" vertex="1" parent="1">
          <mxGeometry x="670" y="-40" width="120" height="60" as="geometry" />
        </mxCell>
        <mxCell id="30E5ns5p_C7HyVAYwPgD-182" value="ADD, EDIT, DELETE PROJECTS" style="rounded=0;whiteSpace=wrap;html=1;fillColor=#ffe6cc;strokeColor=#d79b00;" vertex="1" parent="1">
          <mxGeometry x="840" y="-40" width="120" height="60" as="geometry" />
        </mxCell>
        <mxCell id="30E5ns5p_C7HyVAYwPgD-183" value="SUPPRESSION PROJET" style="rounded=0;whiteSpace=wrap;html=1;fillColor=#fff2cc;strokeColor=#d6b656;" vertex="1" parent="1">
          <mxGeometry x="840" y="30" width="120" height="60" as="geometry" />
        </mxCell>
        <mxCell id="30E5ns5p_C7HyVAYwPgD-184" style="edgeStyle=orthogonalEdgeStyle;rounded=0;orthogonalLoop=1;jettySize=auto;html=1;exitX=0.5;exitY=1;exitDx=0;exitDy=0;entryX=0;entryY=0.5;entryDx=0;entryDy=0;" edge="1" parent="1" source="30E5ns5p_C7HyVAYwPgD-181" target="30E5ns5p_C7HyVAYwPgD-181">
          <mxGeometry relative="1" as="geometry">
            <Array as="points">
              <mxPoint x="730" y="40" />
              <mxPoint x="660" y="40" />
              <mxPoint x="660" y="-10" />
            </Array>
          </mxGeometry>
        </mxCell>
        <mxCell id="30E5ns5p_C7HyVAYwPgD-185" value="Interdit" style="text;html=1;align=center;verticalAlign=middle;whiteSpace=wrap;rounded=0;" vertex="1" parent="1">
          <mxGeometry x="660" y="40" width="60" height="30" as="geometry" />
        </mxCell>
        <mxCell id="30E5ns5p_C7HyVAYwPgD-186" value="Autorisé" style="text;html=1;align=center;verticalAlign=middle;whiteSpace=wrap;rounded=0;" vertex="1" parent="1">
          <mxGeometry x="780" y="-40" width="60" height="30" as="geometry" />
        </mxCell>
        <mxCell id="30E5ns5p_C7HyVAYwPgD-187" value="" style="rounded=0;whiteSpace=wrap;html=1;strokeWidth=2;fillColor=#E5E5E5;perimeterSpacing=0;glass=0;shadow=0;" vertex="1" parent="1">
          <mxGeometry x="980" y="-370" width="300" height="150" as="geometry" />
        </mxCell>
        <mxCell id="30E5ns5p_C7HyVAYwPgD-188" style="edgeStyle=orthogonalEdgeStyle;rounded=0;orthogonalLoop=1;jettySize=auto;html=1;" edge="1" parent="1" source="30E5ns5p_C7HyVAYwPgD-190" target="30E5ns5p_C7HyVAYwPgD-191">
          <mxGeometry relative="1" as="geometry" />
        </mxCell>
        <mxCell id="30E5ns5p_C7HyVAYwPgD-189" style="edgeStyle=orthogonalEdgeStyle;rounded=0;orthogonalLoop=1;jettySize=auto;html=1;entryX=0;entryY=0.5;entryDx=0;entryDy=0;" edge="1" parent="1" source="30E5ns5p_C7HyVAYwPgD-190" target="30E5ns5p_C7HyVAYwPgD-192">
          <mxGeometry relative="1" as="geometry" />
        </mxCell>
        <mxCell id="30E5ns5p_C7HyVAYwPgD-190" value="ADD LOT" style="rounded=1;whiteSpace=wrap;html=1;fillColor=#ffe6cc;strokeColor=#d79b00;" vertex="1" parent="1">
          <mxGeometry x="990" y="-360" width="120" height="60" as="geometry" />
        </mxCell>
        <mxCell id="30E5ns5p_C7HyVAYwPgD-191" value="PARAMETRES DU LOT" style="rounded=0;whiteSpace=wrap;html=1;fillColor=#f8cecc;strokeColor=#b85450;" vertex="1" parent="1">
          <mxGeometry x="1150" y="-360" width="120" height="60" as="geometry" />
        </mxCell>
        <mxCell id="30E5ns5p_C7HyVAYwPgD-192" value="BOUTON POUR CONFIRMER L&#39;AJOUT" style="rounded=0;whiteSpace=wrap;html=1;fillColor=#ffe6cc;strokeColor=#d79b00;" vertex="1" parent="1">
          <mxGeometry x="1150" y="-290" width="120" height="60" as="geometry" />
        </mxCell>
        <mxCell id="30E5ns5p_C7HyVAYwPgD-193" value="" style="rounded=0;whiteSpace=wrap;html=1;strokeWidth=2;fillColor=#E5E5E5;perimeterSpacing=0;glass=0;shadow=0;" vertex="1" parent="1">
          <mxGeometry x="980.97" y="-210" width="300" height="150" as="geometry" />
        </mxCell>
        <mxCell id="30E5ns5p_C7HyVAYwPgD-194" style="edgeStyle=orthogonalEdgeStyle;rounded=0;orthogonalLoop=1;jettySize=auto;html=1;" edge="1" parent="1" source="30E5ns5p_C7HyVAYwPgD-196" target="30E5ns5p_C7HyVAYwPgD-197">
          <mxGeometry relative="1" as="geometry" />
        </mxCell>
        <mxCell id="30E5ns5p_C7HyVAYwPgD-195" style="edgeStyle=orthogonalEdgeStyle;rounded=0;orthogonalLoop=1;jettySize=auto;html=1;entryX=0;entryY=0.5;entryDx=0;entryDy=0;" edge="1" parent="1" source="30E5ns5p_C7HyVAYwPgD-196" target="30E5ns5p_C7HyVAYwPgD-198">
          <mxGeometry relative="1" as="geometry" />
        </mxCell>
        <mxCell id="30E5ns5p_C7HyVAYwPgD-196" value="EDIT LOT" style="rounded=1;whiteSpace=wrap;html=1;fillColor=#ffe6cc;strokeColor=#d79b00;" vertex="1" parent="1">
          <mxGeometry x="990.97" y="-200" width="120" height="60" as="geometry" />
        </mxCell>
        <mxCell id="30E5ns5p_C7HyVAYwPgD-197" value="PARAMETRES DU LOT" style="rounded=0;whiteSpace=wrap;html=1;fillColor=#f8cecc;strokeColor=#b85450;" vertex="1" parent="1">
          <mxGeometry x="1150.97" y="-200" width="120" height="60" as="geometry" />
        </mxCell>
        <mxCell id="30E5ns5p_C7HyVAYwPgD-198" value="BOUTON POUR CONFIRMER LES MODIFICATIONS" style="rounded=0;whiteSpace=wrap;html=1;fillColor=#ffe6cc;strokeColor=#d79b00;" vertex="1" parent="1">
          <mxGeometry x="1150.97" y="-130" width="120" height="60" as="geometry" />
        </mxCell>
        <mxCell id="30E5ns5p_C7HyVAYwPgD-199" value="" style="rounded=0;whiteSpace=wrap;html=1;strokeWidth=2;fillColor=#E5E5E5;perimeterSpacing=0;glass=0;shadow=0;" vertex="1" parent="1">
          <mxGeometry x="980.97" y="-50" width="300" height="70" as="geometry" />
        </mxCell>
        <mxCell id="30E5ns5p_C7HyVAYwPgD-200" style="edgeStyle=orthogonalEdgeStyle;rounded=0;orthogonalLoop=1;jettySize=auto;html=1;" edge="1" parent="1" source="30E5ns5p_C7HyVAYwPgD-201" target="30E5ns5p_C7HyVAYwPgD-202">
          <mxGeometry relative="1" as="geometry" />
        </mxCell>
        <mxCell id="30E5ns5p_C7HyVAYwPgD-201" value="DELETE LOT" style="rounded=1;whiteSpace=wrap;html=1;fillColor=#ffe6cc;strokeColor=#d79b00;" vertex="1" parent="1">
          <mxGeometry x="990.97" y="-40" width="120" height="50" as="geometry" />
        </mxCell>
        <mxCell id="30E5ns5p_C7HyVAYwPgD-202" value="DEMANDE CONFIRMATION SUPPRESSION" style="rounded=0;whiteSpace=wrap;html=1;fillColor=#ffe6cc;strokeColor=#d79b00;" vertex="1" parent="1">
          <mxGeometry x="1150.97" y="-40" width="120" height="50" as="geometry" />
        </mxCell>
        <mxCell id="30E5ns5p_C7HyVAYwPgD-203" value="" style="rounded=0;whiteSpace=wrap;html=1;strokeWidth=2;fillColor=#E5E5E5;perimeterSpacing=0;glass=0;shadow=0;" vertex="1" parent="1">
          <mxGeometry x="1290" y="-370" width="320" height="150" as="geometry" />
        </mxCell>
        <mxCell id="30E5ns5p_C7HyVAYwPgD-204" style="edgeStyle=orthogonalEdgeStyle;rounded=0;orthogonalLoop=1;jettySize=auto;html=1;" edge="1" parent="1" source="30E5ns5p_C7HyVAYwPgD-206" target="30E5ns5p_C7HyVAYwPgD-207">
          <mxGeometry relative="1" as="geometry" />
        </mxCell>
        <mxCell id="30E5ns5p_C7HyVAYwPgD-205" style="edgeStyle=orthogonalEdgeStyle;rounded=0;orthogonalLoop=1;jettySize=auto;html=1;exitX=1;exitY=0.5;exitDx=0;exitDy=0;entryX=0;entryY=0.5;entryDx=0;entryDy=0;" edge="1" parent="1" source="30E5ns5p_C7HyVAYwPgD-206" target="30E5ns5p_C7HyVAYwPgD-208">
          <mxGeometry relative="1" as="geometry" />
        </mxCell>
        <mxCell id="30E5ns5p_C7HyVAYwPgD-206" value="CONFIRMATION AJOUT" style="rounded=1;whiteSpace=wrap;html=1;fillColor=#ffe6cc;strokeColor=#d79b00;" vertex="1" parent="1">
          <mxGeometry x="1310" y="-360" width="120" height="60" as="geometry" />
        </mxCell>
        <mxCell id="30E5ns5p_C7HyVAYwPgD-207" value="ADD, EDIT, DELETE LOTS" style="rounded=0;whiteSpace=wrap;html=1;fillColor=#ffe6cc;strokeColor=#d79b00;" vertex="1" parent="1">
          <mxGeometry x="1480" y="-360" width="120" height="60" as="geometry" />
        </mxCell>
        <mxCell id="30E5ns5p_C7HyVAYwPgD-208" value="AJOUT LOT" style="rounded=0;whiteSpace=wrap;html=1;fillColor=#fff2cc;strokeColor=#d6b656;" vertex="1" parent="1">
          <mxGeometry x="1480" y="-290" width="120" height="60" as="geometry" />
        </mxCell>
        <mxCell id="30E5ns5p_C7HyVAYwPgD-209" style="edgeStyle=orthogonalEdgeStyle;rounded=0;orthogonalLoop=1;jettySize=auto;html=1;exitX=0.5;exitY=1;exitDx=0;exitDy=0;entryX=0;entryY=0.5;entryDx=0;entryDy=0;" edge="1" parent="1" source="30E5ns5p_C7HyVAYwPgD-206" target="30E5ns5p_C7HyVAYwPgD-206">
          <mxGeometry relative="1" as="geometry">
            <Array as="points">
              <mxPoint x="1370" y="-280" />
              <mxPoint x="1300" y="-280" />
              <mxPoint x="1300" y="-330" />
            </Array>
          </mxGeometry>
        </mxCell>
        <mxCell id="30E5ns5p_C7HyVAYwPgD-210" value="Lot invalide" style="text;html=1;align=center;verticalAlign=middle;whiteSpace=wrap;rounded=0;" vertex="1" parent="1">
          <mxGeometry x="1300" y="-280" width="60" height="30" as="geometry" />
        </mxCell>
        <mxCell id="30E5ns5p_C7HyVAYwPgD-211" value="Lot valide" style="text;html=1;align=center;verticalAlign=middle;whiteSpace=wrap;rounded=0;" vertex="1" parent="1">
          <mxGeometry x="1420" y="-360" width="60" height="30" as="geometry" />
        </mxCell>
        <mxCell id="30E5ns5p_C7HyVAYwPgD-212" value="" style="rounded=0;whiteSpace=wrap;html=1;strokeWidth=2;fillColor=#E5E5E5;perimeterSpacing=0;glass=0;shadow=0;" vertex="1" parent="1">
          <mxGeometry x="1290" y="-210" width="320" height="150" as="geometry" />
        </mxCell>
        <mxCell id="30E5ns5p_C7HyVAYwPgD-213" style="edgeStyle=orthogonalEdgeStyle;rounded=0;orthogonalLoop=1;jettySize=auto;html=1;" edge="1" parent="1" source="30E5ns5p_C7HyVAYwPgD-215" target="30E5ns5p_C7HyVAYwPgD-216">
          <mxGeometry relative="1" as="geometry" />
        </mxCell>
        <mxCell id="30E5ns5p_C7HyVAYwPgD-214" style="edgeStyle=orthogonalEdgeStyle;rounded=0;orthogonalLoop=1;jettySize=auto;html=1;exitX=1;exitY=0.5;exitDx=0;exitDy=0;entryX=0;entryY=0.5;entryDx=0;entryDy=0;" edge="1" parent="1" source="30E5ns5p_C7HyVAYwPgD-215" target="30E5ns5p_C7HyVAYwPgD-217">
          <mxGeometry relative="1" as="geometry" />
        </mxCell>
        <mxCell id="30E5ns5p_C7HyVAYwPgD-215" value="CONFIRMATION MODIFICATION" style="rounded=1;whiteSpace=wrap;html=1;fillColor=#ffe6cc;strokeColor=#d79b00;" vertex="1" parent="1">
          <mxGeometry x="1310" y="-200" width="120" height="60" as="geometry" />
        </mxCell>
        <mxCell id="30E5ns5p_C7HyVAYwPgD-216" value="ADD, EDIT, DELETE LOTS" style="rounded=0;whiteSpace=wrap;html=1;fillColor=#ffe6cc;strokeColor=#d79b00;" vertex="1" parent="1">
          <mxGeometry x="1480" y="-200" width="120" height="60" as="geometry" />
        </mxCell>
        <mxCell id="30E5ns5p_C7HyVAYwPgD-217" value="MODIFICATION LOT" style="rounded=0;whiteSpace=wrap;html=1;fillColor=#fff2cc;strokeColor=#d6b656;" vertex="1" parent="1">
          <mxGeometry x="1480" y="-130" width="120" height="60" as="geometry" />
        </mxCell>
        <mxCell id="30E5ns5p_C7HyVAYwPgD-218" style="edgeStyle=orthogonalEdgeStyle;rounded=0;orthogonalLoop=1;jettySize=auto;html=1;exitX=0.5;exitY=1;exitDx=0;exitDy=0;entryX=0;entryY=0.5;entryDx=0;entryDy=0;" edge="1" parent="1" source="30E5ns5p_C7HyVAYwPgD-215" target="30E5ns5p_C7HyVAYwPgD-215">
          <mxGeometry relative="1" as="geometry">
            <Array as="points">
              <mxPoint x="1370" y="-120" />
              <mxPoint x="1300" y="-120" />
              <mxPoint x="1300" y="-170" />
            </Array>
          </mxGeometry>
        </mxCell>
        <mxCell id="30E5ns5p_C7HyVAYwPgD-219" value="Modif invalide" style="text;html=1;align=center;verticalAlign=middle;whiteSpace=wrap;rounded=0;" vertex="1" parent="1">
          <mxGeometry x="1300" y="-120" width="60" height="30" as="geometry" />
        </mxCell>
        <mxCell id="30E5ns5p_C7HyVAYwPgD-220" value="Modif valide" style="text;html=1;align=center;verticalAlign=middle;whiteSpace=wrap;rounded=0;" vertex="1" parent="1">
          <mxGeometry x="1420" y="-200" width="60" height="30" as="geometry" />
        </mxCell>
        <mxCell id="30E5ns5p_C7HyVAYwPgD-221" value="" style="rounded=0;whiteSpace=wrap;html=1;strokeWidth=2;fillColor=#E5E5E5;perimeterSpacing=0;glass=0;shadow=0;" vertex="1" parent="1">
          <mxGeometry x="1290" y="-50" width="320" height="150" as="geometry" />
        </mxCell>
        <mxCell id="30E5ns5p_C7HyVAYwPgD-222" style="edgeStyle=orthogonalEdgeStyle;rounded=0;orthogonalLoop=1;jettySize=auto;html=1;" edge="1" parent="1" source="30E5ns5p_C7HyVAYwPgD-224" target="30E5ns5p_C7HyVAYwPgD-225">
          <mxGeometry relative="1" as="geometry" />
        </mxCell>
        <mxCell id="30E5ns5p_C7HyVAYwPgD-223" style="edgeStyle=orthogonalEdgeStyle;rounded=0;orthogonalLoop=1;jettySize=auto;html=1;exitX=1;exitY=0.5;exitDx=0;exitDy=0;entryX=0;entryY=0.5;entryDx=0;entryDy=0;" edge="1" parent="1" source="30E5ns5p_C7HyVAYwPgD-224" target="30E5ns5p_C7HyVAYwPgD-226">
          <mxGeometry relative="1" as="geometry" />
        </mxCell>
        <mxCell id="30E5ns5p_C7HyVAYwPgD-224" value="CONFIRMATION SUPPRESSION" style="rounded=1;whiteSpace=wrap;html=1;fillColor=#ffe6cc;strokeColor=#d79b00;" vertex="1" parent="1">
          <mxGeometry x="1310" y="-40" width="120" height="60" as="geometry" />
        </mxCell>
        <mxCell id="30E5ns5p_C7HyVAYwPgD-225" value="ADD, EDIT, DELETE LOTS" style="rounded=0;whiteSpace=wrap;html=1;fillColor=#ffe6cc;strokeColor=#d79b00;" vertex="1" parent="1">
          <mxGeometry x="1480" y="-40" width="120" height="60" as="geometry" />
        </mxCell>
        <mxCell id="30E5ns5p_C7HyVAYwPgD-226" value="SUPPRESSION LOT" style="rounded=0;whiteSpace=wrap;html=1;fillColor=#fff2cc;strokeColor=#d6b656;" vertex="1" parent="1">
          <mxGeometry x="1480" y="30" width="120" height="60" as="geometry" />
        </mxCell>
        <mxCell id="30E5ns5p_C7HyVAYwPgD-227" style="edgeStyle=orthogonalEdgeStyle;rounded=0;orthogonalLoop=1;jettySize=auto;html=1;exitX=0.5;exitY=1;exitDx=0;exitDy=0;entryX=0;entryY=0.5;entryDx=0;entryDy=0;" edge="1" parent="1" source="30E5ns5p_C7HyVAYwPgD-224" target="30E5ns5p_C7HyVAYwPgD-224">
          <mxGeometry relative="1" as="geometry">
            <Array as="points">
              <mxPoint x="1370" y="40" />
              <mxPoint x="1300" y="40" />
              <mxPoint x="1300" y="-10" />
            </Array>
          </mxGeometry>
        </mxCell>
        <mxCell id="30E5ns5p_C7HyVAYwPgD-228" value="Interdit" style="text;html=1;align=center;verticalAlign=middle;whiteSpace=wrap;rounded=0;" vertex="1" parent="1">
          <mxGeometry x="1300" y="40" width="60" height="30" as="geometry" />
        </mxCell>
        <mxCell id="30E5ns5p_C7HyVAYwPgD-229" value="Autorisé" style="text;html=1;align=center;verticalAlign=middle;whiteSpace=wrap;rounded=0;" vertex="1" parent="1">
          <mxGeometry x="1420" y="-40" width="60" height="30" as="geometry" />
        </mxCell>
        <mxCell id="30E5ns5p_C7HyVAYwPgD-230" value="" style="rounded=0;whiteSpace=wrap;html=1;strokeWidth=2;fillColor=#E5E5E5;perimeterSpacing=0;glass=0;shadow=0;" vertex="1" parent="1">
          <mxGeometry x="1620" y="-370" width="300" height="150" as="geometry" />
        </mxCell>
        <mxCell id="30E5ns5p_C7HyVAYwPgD-231" style="edgeStyle=orthogonalEdgeStyle;rounded=0;orthogonalLoop=1;jettySize=auto;html=1;" edge="1" parent="1" source="30E5ns5p_C7HyVAYwPgD-233" target="30E5ns5p_C7HyVAYwPgD-234">
          <mxGeometry relative="1" as="geometry" />
        </mxCell>
        <mxCell id="30E5ns5p_C7HyVAYwPgD-232" style="edgeStyle=orthogonalEdgeStyle;rounded=0;orthogonalLoop=1;jettySize=auto;html=1;entryX=0;entryY=0.5;entryDx=0;entryDy=0;" edge="1" parent="1" source="30E5ns5p_C7HyVAYwPgD-233" target="30E5ns5p_C7HyVAYwPgD-235">
          <mxGeometry relative="1" as="geometry" />
        </mxCell>
        <mxCell id="30E5ns5p_C7HyVAYwPgD-233" value="ADD ACTIVITES" style="rounded=1;whiteSpace=wrap;html=1;fillColor=#ffe6cc;strokeColor=#d79b00;" vertex="1" parent="1">
          <mxGeometry x="1630" y="-360" width="120" height="60" as="geometry" />
        </mxCell>
        <mxCell id="30E5ns5p_C7HyVAYwPgD-234" value="PARAMETRES DE L&#39;ACTIVITE" style="rounded=0;whiteSpace=wrap;html=1;fillColor=#f8cecc;strokeColor=#b85450;" vertex="1" parent="1">
          <mxGeometry x="1790" y="-360" width="120" height="60" as="geometry" />
        </mxCell>
        <mxCell id="30E5ns5p_C7HyVAYwPgD-235" value="BOUTON POUR CONFIRMER L&#39;AJOUT" style="rounded=0;whiteSpace=wrap;html=1;fillColor=#ffe6cc;strokeColor=#d79b00;" vertex="1" parent="1">
          <mxGeometry x="1790" y="-290" width="120" height="60" as="geometry" />
        </mxCell>
        <mxCell id="30E5ns5p_C7HyVAYwPgD-236" value="" style="rounded=0;whiteSpace=wrap;html=1;strokeWidth=2;fillColor=#E5E5E5;perimeterSpacing=0;glass=0;shadow=0;" vertex="1" parent="1">
          <mxGeometry x="1620.97" y="-210" width="300" height="150" as="geometry" />
        </mxCell>
        <mxCell id="30E5ns5p_C7HyVAYwPgD-237" style="edgeStyle=orthogonalEdgeStyle;rounded=0;orthogonalLoop=1;jettySize=auto;html=1;" edge="1" parent="1" source="30E5ns5p_C7HyVAYwPgD-239" target="30E5ns5p_C7HyVAYwPgD-240">
          <mxGeometry relative="1" as="geometry" />
        </mxCell>
        <mxCell id="30E5ns5p_C7HyVAYwPgD-238" style="edgeStyle=orthogonalEdgeStyle;rounded=0;orthogonalLoop=1;jettySize=auto;html=1;entryX=0;entryY=0.5;entryDx=0;entryDy=0;" edge="1" parent="1" source="30E5ns5p_C7HyVAYwPgD-239" target="30E5ns5p_C7HyVAYwPgD-241">
          <mxGeometry relative="1" as="geometry" />
        </mxCell>
        <mxCell id="30E5ns5p_C7HyVAYwPgD-239" value="EDIT ACTIVITES" style="rounded=1;whiteSpace=wrap;html=1;fillColor=#ffe6cc;strokeColor=#d79b00;" vertex="1" parent="1">
          <mxGeometry x="1630.97" y="-200" width="120" height="60" as="geometry" />
        </mxCell>
        <mxCell id="30E5ns5p_C7HyVAYwPgD-240" value="PARAMETRES DE L&#39;ACTIVITE" style="rounded=0;whiteSpace=wrap;html=1;fillColor=#f8cecc;strokeColor=#b85450;" vertex="1" parent="1">
          <mxGeometry x="1790.97" y="-200" width="120" height="60" as="geometry" />
        </mxCell>
        <mxCell id="30E5ns5p_C7HyVAYwPgD-241" value="BOUTON POUR CONFIRMER LES MODIFICATIONS" style="rounded=0;whiteSpace=wrap;html=1;fillColor=#ffe6cc;strokeColor=#d79b00;" vertex="1" parent="1">
          <mxGeometry x="1790.97" y="-130" width="120" height="60" as="geometry" />
        </mxCell>
        <mxCell id="30E5ns5p_C7HyVAYwPgD-242" value="" style="rounded=0;whiteSpace=wrap;html=1;strokeWidth=2;fillColor=#E5E5E5;perimeterSpacing=0;glass=0;shadow=0;" vertex="1" parent="1">
          <mxGeometry x="1620.97" y="-50" width="300" height="70" as="geometry" />
        </mxCell>
        <mxCell id="30E5ns5p_C7HyVAYwPgD-243" style="edgeStyle=orthogonalEdgeStyle;rounded=0;orthogonalLoop=1;jettySize=auto;html=1;" edge="1" parent="1" source="30E5ns5p_C7HyVAYwPgD-244" target="30E5ns5p_C7HyVAYwPgD-245">
          <mxGeometry relative="1" as="geometry" />
        </mxCell>
        <mxCell id="30E5ns5p_C7HyVAYwPgD-244" value="DELETE ACTIVITES" style="rounded=1;whiteSpace=wrap;html=1;fillColor=#ffe6cc;strokeColor=#d79b00;" vertex="1" parent="1">
          <mxGeometry x="1630.97" y="-40" width="120" height="50" as="geometry" />
        </mxCell>
        <mxCell id="30E5ns5p_C7HyVAYwPgD-245" value="DEMANDE CONFIRMATION SUPPRESSION" style="rounded=0;whiteSpace=wrap;html=1;fillColor=#ffe6cc;strokeColor=#d79b00;" vertex="1" parent="1">
          <mxGeometry x="1790.97" y="-40" width="120" height="50" as="geometry" />
        </mxCell>
        <mxCell id="30E5ns5p_C7HyVAYwPgD-246" value="" style="rounded=0;whiteSpace=wrap;html=1;strokeWidth=2;fillColor=#E5E5E5;perimeterSpacing=0;glass=0;shadow=0;" vertex="1" parent="1">
          <mxGeometry x="1930" y="-370" width="320" height="150" as="geometry" />
        </mxCell>
        <mxCell id="30E5ns5p_C7HyVAYwPgD-247" style="edgeStyle=orthogonalEdgeStyle;rounded=0;orthogonalLoop=1;jettySize=auto;html=1;" edge="1" parent="1" source="30E5ns5p_C7HyVAYwPgD-249" target="30E5ns5p_C7HyVAYwPgD-250">
          <mxGeometry relative="1" as="geometry" />
        </mxCell>
        <mxCell id="30E5ns5p_C7HyVAYwPgD-248" style="edgeStyle=orthogonalEdgeStyle;rounded=0;orthogonalLoop=1;jettySize=auto;html=1;exitX=1;exitY=0.5;exitDx=0;exitDy=0;entryX=0;entryY=0.5;entryDx=0;entryDy=0;" edge="1" parent="1" source="30E5ns5p_C7HyVAYwPgD-249" target="30E5ns5p_C7HyVAYwPgD-251">
          <mxGeometry relative="1" as="geometry" />
        </mxCell>
        <mxCell id="30E5ns5p_C7HyVAYwPgD-249" value="CONFIRMATION AJOUT" style="rounded=1;whiteSpace=wrap;html=1;fillColor=#ffe6cc;strokeColor=#d79b00;" vertex="1" parent="1">
          <mxGeometry x="1950" y="-360" width="120" height="60" as="geometry" />
        </mxCell>
        <mxCell id="30E5ns5p_C7HyVAYwPgD-250" value="ADD, EDIT, DELETE ACTIVITES" style="rounded=0;whiteSpace=wrap;html=1;fillColor=#ffe6cc;strokeColor=#d79b00;" vertex="1" parent="1">
          <mxGeometry x="2120" y="-360" width="120" height="60" as="geometry" />
        </mxCell>
        <mxCell id="30E5ns5p_C7HyVAYwPgD-251" value="AJOUT ACTIVITES" style="rounded=0;whiteSpace=wrap;html=1;fillColor=#fff2cc;strokeColor=#d6b656;" vertex="1" parent="1">
          <mxGeometry x="2120" y="-290" width="120" height="60" as="geometry" />
        </mxCell>
        <mxCell id="30E5ns5p_C7HyVAYwPgD-252" style="edgeStyle=orthogonalEdgeStyle;rounded=0;orthogonalLoop=1;jettySize=auto;html=1;exitX=0.5;exitY=1;exitDx=0;exitDy=0;entryX=0;entryY=0.5;entryDx=0;entryDy=0;" edge="1" parent="1" source="30E5ns5p_C7HyVAYwPgD-249" target="30E5ns5p_C7HyVAYwPgD-249">
          <mxGeometry relative="1" as="geometry">
            <Array as="points">
              <mxPoint x="2010" y="-280" />
              <mxPoint x="1940" y="-280" />
              <mxPoint x="1940" y="-330" />
            </Array>
          </mxGeometry>
        </mxCell>
        <mxCell id="30E5ns5p_C7HyVAYwPgD-253" value="Activité invalide" style="text;html=1;align=center;verticalAlign=middle;whiteSpace=wrap;rounded=0;" vertex="1" parent="1">
          <mxGeometry x="1940" y="-280" width="60" height="30" as="geometry" />
        </mxCell>
        <mxCell id="30E5ns5p_C7HyVAYwPgD-254" value="Activité valide" style="text;html=1;align=center;verticalAlign=middle;whiteSpace=wrap;rounded=0;" vertex="1" parent="1">
          <mxGeometry x="2060" y="-360" width="60" height="30" as="geometry" />
        </mxCell>
        <mxCell id="30E5ns5p_C7HyVAYwPgD-255" value="" style="rounded=0;whiteSpace=wrap;html=1;strokeWidth=2;fillColor=#E5E5E5;perimeterSpacing=0;glass=0;shadow=0;" vertex="1" parent="1">
          <mxGeometry x="1930" y="-210" width="320" height="150" as="geometry" />
        </mxCell>
        <mxCell id="30E5ns5p_C7HyVAYwPgD-256" style="edgeStyle=orthogonalEdgeStyle;rounded=0;orthogonalLoop=1;jettySize=auto;html=1;" edge="1" parent="1" source="30E5ns5p_C7HyVAYwPgD-258" target="30E5ns5p_C7HyVAYwPgD-259">
          <mxGeometry relative="1" as="geometry" />
        </mxCell>
        <mxCell id="30E5ns5p_C7HyVAYwPgD-257" style="edgeStyle=orthogonalEdgeStyle;rounded=0;orthogonalLoop=1;jettySize=auto;html=1;exitX=1;exitY=0.5;exitDx=0;exitDy=0;entryX=0;entryY=0.5;entryDx=0;entryDy=0;" edge="1" parent="1" source="30E5ns5p_C7HyVAYwPgD-258" target="30E5ns5p_C7HyVAYwPgD-260">
          <mxGeometry relative="1" as="geometry" />
        </mxCell>
        <mxCell id="30E5ns5p_C7HyVAYwPgD-258" value="CONFIRMATION MODIFICATION" style="rounded=1;whiteSpace=wrap;html=1;fillColor=#ffe6cc;strokeColor=#d79b00;" vertex="1" parent="1">
          <mxGeometry x="1950" y="-200" width="120" height="60" as="geometry" />
        </mxCell>
        <mxCell id="30E5ns5p_C7HyVAYwPgD-259" value="ADD, EDIT, DELETE ACTIVITES" style="rounded=0;whiteSpace=wrap;html=1;fillColor=#ffe6cc;strokeColor=#d79b00;" vertex="1" parent="1">
          <mxGeometry x="2120" y="-200" width="120" height="60" as="geometry" />
        </mxCell>
        <mxCell id="30E5ns5p_C7HyVAYwPgD-260" value="MODIFICATION ACTIVITES" style="rounded=0;whiteSpace=wrap;html=1;fillColor=#fff2cc;strokeColor=#d6b656;" vertex="1" parent="1">
          <mxGeometry x="2120" y="-130" width="120" height="60" as="geometry" />
        </mxCell>
        <mxCell id="30E5ns5p_C7HyVAYwPgD-261" style="edgeStyle=orthogonalEdgeStyle;rounded=0;orthogonalLoop=1;jettySize=auto;html=1;exitX=0.5;exitY=1;exitDx=0;exitDy=0;entryX=0;entryY=0.5;entryDx=0;entryDy=0;" edge="1" parent="1" source="30E5ns5p_C7HyVAYwPgD-258" target="30E5ns5p_C7HyVAYwPgD-258">
          <mxGeometry relative="1" as="geometry">
            <Array as="points">
              <mxPoint x="2010" y="-120" />
              <mxPoint x="1940" y="-120" />
              <mxPoint x="1940" y="-170" />
            </Array>
          </mxGeometry>
        </mxCell>
        <mxCell id="30E5ns5p_C7HyVAYwPgD-262" value="Modif invalide" style="text;html=1;align=center;verticalAlign=middle;whiteSpace=wrap;rounded=0;" vertex="1" parent="1">
          <mxGeometry x="1940" y="-120" width="60" height="30" as="geometry" />
        </mxCell>
        <mxCell id="30E5ns5p_C7HyVAYwPgD-263" value="Modif valide" style="text;html=1;align=center;verticalAlign=middle;whiteSpace=wrap;rounded=0;" vertex="1" parent="1">
          <mxGeometry x="2060" y="-200" width="60" height="30" as="geometry" />
        </mxCell>
        <mxCell id="30E5ns5p_C7HyVAYwPgD-264" value="" style="rounded=0;whiteSpace=wrap;html=1;strokeWidth=2;fillColor=#E5E5E5;perimeterSpacing=0;glass=0;shadow=0;" vertex="1" parent="1">
          <mxGeometry x="1930" y="-50" width="320" height="150" as="geometry" />
        </mxCell>
        <mxCell id="30E5ns5p_C7HyVAYwPgD-265" style="edgeStyle=orthogonalEdgeStyle;rounded=0;orthogonalLoop=1;jettySize=auto;html=1;" edge="1" parent="1" source="30E5ns5p_C7HyVAYwPgD-267" target="30E5ns5p_C7HyVAYwPgD-268">
          <mxGeometry relative="1" as="geometry" />
        </mxCell>
        <mxCell id="30E5ns5p_C7HyVAYwPgD-266" style="edgeStyle=orthogonalEdgeStyle;rounded=0;orthogonalLoop=1;jettySize=auto;html=1;exitX=1;exitY=0.5;exitDx=0;exitDy=0;entryX=0;entryY=0.5;entryDx=0;entryDy=0;" edge="1" parent="1" source="30E5ns5p_C7HyVAYwPgD-267" target="30E5ns5p_C7HyVAYwPgD-269">
          <mxGeometry relative="1" as="geometry" />
        </mxCell>
        <mxCell id="30E5ns5p_C7HyVAYwPgD-267" value="CONFIRMATION SUPPRESSION" style="rounded=1;whiteSpace=wrap;html=1;fillColor=#ffe6cc;strokeColor=#d79b00;" vertex="1" parent="1">
          <mxGeometry x="1950" y="-40" width="120" height="60" as="geometry" />
        </mxCell>
        <mxCell id="30E5ns5p_C7HyVAYwPgD-268" value="ADD, EDIT, DELETE ACTIVITES" style="rounded=0;whiteSpace=wrap;html=1;fillColor=#ffe6cc;strokeColor=#d79b00;" vertex="1" parent="1">
          <mxGeometry x="2120" y="-40" width="120" height="60" as="geometry" />
        </mxCell>
        <mxCell id="30E5ns5p_C7HyVAYwPgD-269" value="SUPPRESSION ACTIVITES" style="rounded=0;whiteSpace=wrap;html=1;fillColor=#fff2cc;strokeColor=#d6b656;" vertex="1" parent="1">
          <mxGeometry x="2120" y="30" width="120" height="60" as="geometry" />
        </mxCell>
        <mxCell id="30E5ns5p_C7HyVAYwPgD-270" style="edgeStyle=orthogonalEdgeStyle;rounded=0;orthogonalLoop=1;jettySize=auto;html=1;exitX=0.5;exitY=1;exitDx=0;exitDy=0;entryX=0;entryY=0.5;entryDx=0;entryDy=0;" edge="1" parent="1" source="30E5ns5p_C7HyVAYwPgD-267" target="30E5ns5p_C7HyVAYwPgD-267">
          <mxGeometry relative="1" as="geometry">
            <Array as="points">
              <mxPoint x="2010" y="40" />
              <mxPoint x="1940" y="40" />
              <mxPoint x="1940" y="-10" />
            </Array>
          </mxGeometry>
        </mxCell>
        <mxCell id="30E5ns5p_C7HyVAYwPgD-271" value="Interdit" style="text;html=1;align=center;verticalAlign=middle;whiteSpace=wrap;rounded=0;" vertex="1" parent="1">
          <mxGeometry x="1940" y="40" width="60" height="30" as="geometry" />
        </mxCell>
        <mxCell id="30E5ns5p_C7HyVAYwPgD-272" value="Autorisé" style="text;html=1;align=center;verticalAlign=middle;whiteSpace=wrap;rounded=0;" vertex="1" parent="1">
          <mxGeometry x="2060" y="-40" width="60" height="30" as="geometry" />
        </mxCell>
      </root>
    </mxGraphModel>
  </diagram>
</mxfile>
